<?xml version="1.0" encoding="UTF-8"?><svg xmlns="http://www.w3.org/2000/svg" xmlns:xlink="http://www.w3.org/1999/xlink" fill-opacity="1" color-rendering="auto" color-interpolation="auto" text-rendering="auto" stroke="black" stroke-linecap="square" width="1853" stroke-miterlimit="10" shape-rendering="auto" stroke-opacity="1" fill="black" stroke-dasharray="none" font-weight="normal" stroke-width="1" height="913" font-family="'Dialog'" font-style="normal" stroke-linejoin="miter" font-size="12px" stroke-dashoffset="0" image-rendering="auto">
  <!--Generated by ySVG 2.6-->
  <defs id="genericDefs"/>
  <g>
    <defs id="defs1">
      <clipPath clipPathUnits="userSpaceOnUse" id="clipPath1">
        <path d="M0 0 L1853 0 L1853 913 L0 913 L0 0 Z"/>
      </clipPath>
      <clipPath clipPathUnits="userSpaceOnUse" id="clipPath2">
        <path d="M229 12 L2082 12 L2082 925 L229 925 L229 12 Z"/>
      </clipPath>
      <clipPath clipPathUnits="userSpaceOnUse" id="clipPath3">
        <path d="M479 262 L479 393 L941 393 L941 262 Z"/>
      </clipPath>
      <clipPath clipPathUnits="userSpaceOnUse" id="clipPath4">
        <path d="M1249 262 L1249 393 L1594 393 L1594 262 Z"/>
      </clipPath>
      <clipPath clipPathUnits="userSpaceOnUse" id="clipPath5">
        <path d="M479 569 L479 675 L941 675 L941 569 Z"/>
      </clipPath>
      <clipPath clipPathUnits="userSpaceOnUse" id="clipPath6">
        <path d="M1041 569 L1041 675 L1386 675 L1386 569 Z"/>
      </clipPath>
      <clipPath clipPathUnits="userSpaceOnUse" id="clipPath7">
        <path d="M1487 569 L1487 675 L1832 675 L1832 569 Z"/>
      </clipPath>
    </defs>
    <g fill="white" text-rendering="geometricPrecision" shape-rendering="geometricPrecision" transform="translate(-229,-12)" stroke="white">
      <rect x="229" width="1853" height="913" y="12" clip-path="url(#clipPath2)" stroke="none"/>
    </g>
    <g fill="rgb(255,204,0)" text-rendering="geometricPrecision" shape-rendering="geometricPrecision" transform="matrix(1,0,0,1,-229,-12)" stroke="rgb(255,204,0)">
      <rect x="480" width="460" height="129" y="263" clip-path="url(#clipPath2)" stroke="none"/>
      <rect x="479" y="262" clip-path="url(#clipPath2)" fill="yellow" width="1" height="131" stroke="none"/>
      <rect x="480" y="262" clip-path="url(#clipPath2)" fill="yellow" width="460" height="1" stroke="none"/>
      <rect x="480" y="392" clip-path="url(#clipPath2)" fill="rgb(178,142,0)" width="461" height="1" stroke="none"/>
      <rect x="940" y="262" clip-path="url(#clipPath2)" fill="rgb(178,142,0)" width="1" height="130" stroke="none"/>
    </g>
    <g font-size="13px" stroke-linecap="butt" transform="matrix(1,0,0,1,-229,-12)" text-rendering="geometricPrecision" font-family="sans-serif" shape-rendering="geometricPrecision" font-weight="bold" stroke-miterlimit="1.45">
      <text x="697.3586" xml:space="preserve" y="280.0698" clip-path="url(#clipPath3)" stroke="none">Oda</text>
    </g>
    <g text-rendering="geometricPrecision" shape-rendering="geometricPrecision" transform="matrix(1,0,0,1,-229,-12)">
      <line y2="287" fill="none" x1="480" clip-path="url(#clipPath3)" x2="940" y1="287"/>
      <text stroke-linecap="butt" x="484" y="304.9907" clip-path="url(#clipPath3)" font-family="sans-serif" stroke="none" stroke-miterlimit="1.45" xml:space="preserve"># katilimcilar : vector&lt;Katilimci&gt;</text>
      <line y2="312" fill="none" x1="480" clip-path="url(#clipPath3)" x2="940" y1="312"/>
      <text stroke-linecap="butt" x="484" y="329.6919" clip-path="url(#clipPath3)" font-family="sans-serif" stroke="none" stroke-miterlimit="1.45" xml:space="preserve"># Oda()</text>
      <text stroke-linecap="butt" x="484" y="344.3931" clip-path="url(#clipPath3)" font-family="sans-serif" stroke="none" stroke-miterlimit="1.45" xml:space="preserve">+ KatilimciEkle(Katilimci) : void</text>
      <text stroke-linecap="butt" x="484" y="359.0942" clip-path="url(#clipPath3)" font-family="sans-serif" stroke="none" stroke-miterlimit="1.45" xml:space="preserve">+ MesajGonder(gonderen : Katilimci, alan : Katilimci, mesaj : string) : virtual void = 0</text>
      <text stroke-linecap="butt" x="484" y="373.7954" clip-path="url(#clipPath3)" font-family="sans-serif" stroke="none" stroke-miterlimit="1.45" xml:space="preserve">+ BroadcastMesajGonder(gonderen : Katilimci, mesaj : string) : virtual void = 0</text>
      <rect x="1250" y="263" clip-path="url(#clipPath2)" fill="rgb(255,204,0)" width="343" height="129" stroke="none"/>
      <rect x="1249" y="262" clip-path="url(#clipPath2)" fill="yellow" width="1" height="131" stroke="none"/>
      <rect x="1250" y="262" clip-path="url(#clipPath2)" fill="yellow" width="343" height="1" stroke="none"/>
      <rect x="1250" y="392" clip-path="url(#clipPath2)" fill="rgb(178,142,0)" width="344" height="1" stroke="none"/>
      <rect x="1593" y="262" clip-path="url(#clipPath2)" fill="rgb(178,142,0)" width="1" height="130" stroke="none"/>
    </g>
    <g font-size="13px" stroke-linecap="butt" transform="matrix(1,0,0,1,-229,-12)" text-rendering="geometricPrecision" font-family="sans-serif" shape-rendering="geometricPrecision" font-weight="bold" stroke-miterlimit="1.45">
      <text x="1394.4082" xml:space="preserve" y="280.0698" clip-path="url(#clipPath4)" stroke="none">Katilimci</text>
    </g>
    <g text-rendering="geometricPrecision" shape-rendering="geometricPrecision" transform="matrix(1,0,0,1,-229,-12)">
      <line y2="287" fill="none" x1="1250" clip-path="url(#clipPath4)" x2="1593" y1="287"/>
      <text stroke-linecap="butt" x="1254" y="304.9907" clip-path="url(#clipPath4)" font-family="sans-serif" stroke="none" stroke-miterlimit="1.45" xml:space="preserve">- nick: string</text>
      <line y2="312" fill="none" x1="1250" clip-path="url(#clipPath4)" x2="1593" y1="312"/>
      <text stroke-linecap="butt" x="1254" y="329.6919" clip-path="url(#clipPath4)" font-family="sans-serif" stroke="none" stroke-miterlimit="1.45" xml:space="preserve"># Katilimci(nick : string)</text>
      <text stroke-linecap="butt" x="1254" y="344.3931" clip-path="url(#clipPath4)" font-family="sans-serif" stroke="none" stroke-miterlimit="1.45" xml:space="preserve">+ getNick() : string</text>
      <text stroke-linecap="butt" x="1254" y="359.0942" clip-path="url(#clipPath4)" font-family="sans-serif" stroke="none" stroke-miterlimit="1.45" xml:space="preserve">+ setNick(value : string) : void</text>
      <text stroke-linecap="butt" x="1254" y="373.7954" clip-path="url(#clipPath4)" font-family="sans-serif" stroke="none" stroke-miterlimit="1.45" xml:space="preserve">+ MesajAl(gonderici : Katilimci, mesaj : string) : virtual void = 0</text>
      <rect x="480" y="570" clip-path="url(#clipPath2)" fill="rgb(255,204,0)" width="460" height="104" stroke="none"/>
      <rect x="479" y="569" clip-path="url(#clipPath2)" fill="yellow" width="1" height="106" stroke="none"/>
      <rect x="480" y="569" clip-path="url(#clipPath2)" fill="yellow" width="460" height="1" stroke="none"/>
      <rect x="480" y="674" clip-path="url(#clipPath2)" fill="rgb(178,142,0)" width="461" height="1" stroke="none"/>
      <rect x="940" y="569" clip-path="url(#clipPath2)" fill="rgb(178,142,0)" width="1" height="105" stroke="none"/>
    </g>
    <g font-size="13px" stroke-linecap="butt" transform="matrix(1,0,0,1,-229,-12)" text-rendering="geometricPrecision" font-family="sans-serif" shape-rendering="geometricPrecision" font-weight="bold" stroke-miterlimit="1.45">
      <text x="669.54" xml:space="preserve" y="587.0698" clip-path="url(#clipPath5)" stroke="none">YazilimOdasi</text>
    </g>
    <g text-rendering="geometricPrecision" shape-rendering="geometricPrecision" transform="matrix(1,0,0,1,-229,-12)">
      <line y2="594" fill="none" x1="480" clip-path="url(#clipPath5)" x2="940" y1="594"/>
      <line y2="604" fill="none" x1="480" clip-path="url(#clipPath5)" x2="940" y1="604"/>
      <text stroke-linecap="butt" x="484" y="621.9907" clip-path="url(#clipPath5)" font-family="sans-serif" stroke="none" stroke-miterlimit="1.45" xml:space="preserve">+ YazilimOdasi()</text>
      <text stroke-linecap="butt" x="484" y="636.6919" clip-path="url(#clipPath5)" font-family="sans-serif" stroke="none" stroke-miterlimit="1.45" xml:space="preserve">+ BroadcastMesajGonder(gonderen : Katilimci, mesaj : string) override : void</text>
      <text stroke-linecap="butt" x="484" y="651.3931" clip-path="url(#clipPath5)" font-family="sans-serif" stroke="none" stroke-miterlimit="1.45" xml:space="preserve">+ MesajGonder(gonderen : Katilimci, alan : Katilimci, mesaj : string) override : void</text>
      <rect x="1042" y="570" clip-path="url(#clipPath2)" fill="rgb(255,204,0)" width="343" height="104" stroke="none"/>
      <rect x="1041" y="569" clip-path="url(#clipPath2)" fill="yellow" width="1" height="106" stroke="none"/>
      <rect x="1042" y="569" clip-path="url(#clipPath2)" fill="yellow" width="343" height="1" stroke="none"/>
      <rect x="1042" y="674" clip-path="url(#clipPath2)" fill="rgb(178,142,0)" width="344" height="1" stroke="none"/>
      <rect x="1385" y="569" clip-path="url(#clipPath2)" fill="rgb(178,142,0)" width="1" height="105" stroke="none"/>
    </g>
    <g font-size="13px" stroke-linecap="butt" transform="matrix(1,0,0,1,-229,-12)" text-rendering="geometricPrecision" font-family="sans-serif" shape-rendering="geometricPrecision" font-weight="bold" stroke-miterlimit="1.45">
      <text x="1182.2205" xml:space="preserve" y="587.0698" clip-path="url(#clipPath6)" stroke="none">Moderator</text>
    </g>
    <g text-rendering="geometricPrecision" shape-rendering="geometricPrecision" transform="matrix(1,0,0,1,-229,-12)">
      <line y2="594" fill="none" x1="1042" clip-path="url(#clipPath6)" x2="1385" y1="594"/>
      <line y2="604" fill="none" x1="1042" clip-path="url(#clipPath6)" x2="1385" y1="604"/>
      <text stroke-linecap="butt" x="1046.5" y="621.9907" clip-path="url(#clipPath6)" font-family="sans-serif" stroke="none" stroke-miterlimit="1.45" xml:space="preserve">+ Moderator(nick : string)</text>
      <text stroke-linecap="butt" x="1046.5" y="636.6919" clip-path="url(#clipPath6)" font-family="sans-serif" stroke="none" stroke-miterlimit="1.45" xml:space="preserve">+ MesajAl(gonderen : Katilimci, mesaj : string) override : void</text>
      <rect x="1488" y="570" clip-path="url(#clipPath2)" fill="rgb(255,204,0)" width="343" height="104" stroke="none"/>
      <rect x="1487" y="569" clip-path="url(#clipPath2)" fill="yellow" width="1" height="106" stroke="none"/>
      <rect x="1488" y="569" clip-path="url(#clipPath2)" fill="yellow" width="343" height="1" stroke="none"/>
      <rect x="1488" y="674" clip-path="url(#clipPath2)" fill="rgb(178,142,0)" width="344" height="1" stroke="none"/>
      <rect x="1831" y="569" clip-path="url(#clipPath2)" fill="rgb(178,142,0)" width="1" height="105" stroke="none"/>
    </g>
    <g font-size="13px" stroke-linecap="butt" transform="matrix(1,0,0,1,-229,-12)" text-rendering="geometricPrecision" font-family="sans-serif" shape-rendering="geometricPrecision" font-weight="bold" stroke-miterlimit="1.45">
      <text x="1610.0137" xml:space="preserve" y="587.0698" clip-path="url(#clipPath7)" stroke="none">NormalKatilimci</text>
    </g>
    <g text-rendering="geometricPrecision" shape-rendering="geometricPrecision" transform="matrix(1,0,0,1,-229,-12)">
      <line y2="594" fill="none" x1="1488" clip-path="url(#clipPath7)" x2="1831" y1="594"/>
      <line y2="604" fill="none" x1="1488" clip-path="url(#clipPath7)" x2="1831" y1="604"/>
      <text stroke-linecap="butt" x="1492" y="621.9907" clip-path="url(#clipPath7)" font-family="sans-serif" stroke="none" stroke-miterlimit="1.45" xml:space="preserve">+ NormalKatilimci(nick : string)</text>
      <text stroke-linecap="butt" x="1492" y="636.6919" clip-path="url(#clipPath7)" font-family="sans-serif" stroke="none" stroke-miterlimit="1.45" xml:space="preserve">+ MesajAl(gonderen : Katilimci, mesaj : string) override : void</text>
      <path fill="none" stroke-miterlimit="1.45" d="M940.9856 327.5 L1249.0204 327.5" clip-path="url(#clipPath2)" stroke-linecap="butt"/>
      <path fill="none" stroke-miterlimit="1.45" d="M710 568.9742 L710 408.027" clip-path="url(#clipPath2)" stroke-linecap="butt"/>
    </g>
    <g stroke-linecap="butt" transform="matrix(1,0,0,1,-229,-12)" fill="white" text-rendering="geometricPrecision" shape-rendering="geometricPrecision" stroke="white" stroke-miterlimit="1.45">
      <path d="M710 393.027 L704 409.027 L716 409.027 Z" stroke="none" clip-path="url(#clipPath2)"/>
      <path fill="none" d="M710 393.027 L704 409.027 L716 409.027 Z" clip-path="url(#clipPath2)" stroke="black"/>
      <path fill="none" d="M1251.3611 568.9742 L1366.6912 405.289" clip-path="url(#clipPath2)" stroke="black"/>
      <path d="M1375.3307 393.0269 L1361.2103 402.6507 L1371.02 409.5623 Z" clip-path="url(#clipPath2)" stroke="none"/>
      <path fill="none" d="M1375.3307 393.0269 L1361.2103 402.6507 L1371.02 409.5623 Z" clip-path="url(#clipPath2)" stroke="black"/>
      <path fill="none" d="M1616.6472 568.9742 L1483.8839 404.6935" clip-path="url(#clipPath2)" stroke="black"/>
      <path d="M1474.4556 393.027 L1479.8458 409.2426 L1489.1791 401.7 Z" clip-path="url(#clipPath2)" stroke="none"/>
      <path fill="none" d="M1474.4556 393.027 L1479.8458 409.2426 L1489.1791 401.7 Z" clip-path="url(#clipPath2)" stroke="black"/>
    </g>
  </g>
</svg>
