<?xml version="1.0" encoding="UTF-8"?><svg xmlns="http://www.w3.org/2000/svg" xmlns:xlink="http://www.w3.org/1999/xlink" fill-opacity="1" color-rendering="auto" color-interpolation="auto" text-rendering="auto" stroke="black" stroke-linecap="square" width="1513" stroke-miterlimit="10" shape-rendering="auto" stroke-opacity="1" fill="black" stroke-dasharray="none" font-weight="normal" stroke-width="1" height="410" font-family="'Dialog'" font-style="normal" stroke-linejoin="miter" font-size="12px" stroke-dashoffset="0" image-rendering="auto">
  <!--Generated by ySVG 2.6-->
  <defs id="genericDefs"/>
  <g>
    <defs id="defs1">
      <clipPath clipPathUnits="userSpaceOnUse" id="clipPath1">
        <path d="M0 0 L1513 0 L1513 410 L0 410 L0 0 Z"/>
      </clipPath>
      <clipPath clipPathUnits="userSpaceOnUse" id="clipPath2">
        <path d="M57 405 L1570 405 L1570 815 L57 815 L57 405 Z"/>
      </clipPath>
      <clipPath clipPathUnits="userSpaceOnUse" id="clipPath3">
        <path d="M1154 447 L1154 565 L1398 565 L1398 447 Z"/>
      </clipPath>
      <clipPath clipPathUnits="userSpaceOnUse" id="clipPath4">
        <path d="M356 420 L356 591 L600 591 L600 420 Z"/>
      </clipPath>
      <clipPath clipPathUnits="userSpaceOnUse" id="clipPath5">
        <path d="M72 725 L72 798 L276 798 L276 725 Z"/>
      </clipPath>
      <clipPath clipPathUnits="userSpaceOnUse" id="clipPath6">
        <path d="M375 725 L375 798 L579 798 L579 725 Z"/>
      </clipPath>
      <clipPath clipPathUnits="userSpaceOnUse" id="clipPath7">
        <path d="M679 725 L679 798 L883 798 L883 725 Z"/>
      </clipPath>
      <clipPath clipPathUnits="userSpaceOnUse" id="clipPath8">
        <path d="M974 694 L974 789 L1230 789 L1230 694 Z"/>
      </clipPath>
      <clipPath clipPathUnits="userSpaceOnUse" id="clipPath9">
        <path d="M1297 694 L1297 789 L1553 789 L1553 694 Z"/>
      </clipPath>
    </defs>
    <g fill="white" text-rendering="geometricPrecision" shape-rendering="geometricPrecision" transform="translate(-57,-405)" stroke="white">
      <rect x="57" width="1513" height="410" y="405" clip-path="url(#clipPath2)" stroke="none"/>
    </g>
    <g fill="rgb(255,204,0)" text-rendering="geometricPrecision" shape-rendering="geometricPrecision" transform="matrix(1,0,0,1,-57,-405)" stroke="rgb(255,204,0)">
      <rect x="1155" width="242" height="116" y="448" clip-path="url(#clipPath2)" stroke="none"/>
      <rect x="1154" y="447" clip-path="url(#clipPath2)" fill="yellow" width="1" height="118" stroke="none"/>
      <rect x="1155" y="447" clip-path="url(#clipPath2)" fill="yellow" width="242" height="1" stroke="none"/>
      <rect x="1155" y="564" clip-path="url(#clipPath2)" fill="rgb(178,142,0)" width="243" height="1" stroke="none"/>
      <rect x="1397" y="447" clip-path="url(#clipPath2)" fill="rgb(178,142,0)" width="1" height="117" stroke="none"/>
    </g>
    <g text-rendering="geometricPrecision" stroke-miterlimit="1.45" shape-rendering="geometricPrecision" font-family="sans-serif" transform="matrix(1,0,0,1,-57,-405)" stroke-linecap="butt">
      <text x="1239.7217" xml:space="preserve" y="464.3967" clip-path="url(#clipPath3)" stroke="none">&lt;&lt;interface&gt;&gt;</text>
      <text x="1254.7173" font-size="13px" y="489.1033" clip-path="url(#clipPath3)" stroke="none" font-weight="bold" xml:space="preserve">IVisitor</text>
      <line stroke-linecap="square" clip-path="url(#clipPath3)" fill="none" x1="1155" x2="1397" y1="496" y2="496" stroke-miterlimit="10"/>
      <line stroke-linecap="square" clip-path="url(#clipPath3)" fill="none" x1="1155" x2="1397" y1="506" y2="506" stroke-miterlimit="10"/>
      <text x="1159.75" xml:space="preserve" y="524.0242" clip-path="url(#clipPath3)" stroke="none">+ virtual DropDownVisit(*c : Control) : void</text>
      <text x="1159.75" xml:space="preserve" y="538.7253" clip-path="url(#clipPath3)" stroke="none">+ virtual PanelVisit(*c : Control) : void</text>
      <text x="1159.75" xml:space="preserve" y="553.4265" clip-path="url(#clipPath3)" stroke="none">+ virtual TextBoxVisit(*c : Control) : void</text>
    </g>
    <g fill="rgb(255,204,0)" text-rendering="geometricPrecision" shape-rendering="geometricPrecision" transform="matrix(1,0,0,1,-57,-405)" stroke="rgb(255,204,0)">
      <rect x="357" width="242" height="169" y="421" clip-path="url(#clipPath2)" stroke="none"/>
      <rect x="356" y="420" clip-path="url(#clipPath2)" fill="yellow" width="1" height="171" stroke="none"/>
      <rect x="357" y="420" clip-path="url(#clipPath2)" fill="yellow" width="242" height="1" stroke="none"/>
      <rect x="357" y="590" clip-path="url(#clipPath2)" fill="rgb(178,142,0)" width="243" height="1" stroke="none"/>
      <rect x="599" y="420" clip-path="url(#clipPath2)" fill="rgb(178,142,0)" width="1" height="170" stroke="none"/>
    </g>
    <g font-size="13px" stroke-linecap="butt" transform="matrix(1,0,0,1,-57,-405)" text-rendering="geometricPrecision" font-family="sans-serif" shape-rendering="geometricPrecision" font-weight="bold" stroke-miterlimit="1.45">
      <text x="454.8945" xml:space="preserve" y="438.8698" clip-path="url(#clipPath4)" stroke="none">Control</text>
    </g>
    <g text-rendering="geometricPrecision" shape-rendering="geometricPrecision" transform="matrix(1,0,0,1,-57,-405)">
      <line y2="446" fill="none" x1="357" clip-path="url(#clipPath4)" x2="599" y1="446"/>
      <text stroke-linecap="butt" x="361" y="463.7907" clip-path="url(#clipPath4)" font-family="sans-serif" stroke="none" stroke-miterlimit="1.45" xml:space="preserve"># id : string</text>
      <text stroke-linecap="butt" x="361" y="478.4919" clip-path="url(#clipPath4)" font-family="sans-serif" stroke="none" stroke-miterlimit="1.45" xml:space="preserve"># text : string</text>
      <line y2="486" fill="none" x1="357" clip-path="url(#clipPath4)" x2="599" y1="486"/>
      <text stroke-linecap="butt" x="361" y="503.1931" clip-path="url(#clipPath4)" font-family="sans-serif" stroke="none" stroke-miterlimit="1.45" xml:space="preserve">+ const getText() const : string&amp;</text>
      <text stroke-linecap="butt" x="361" y="517.8942" clip-path="url(#clipPath4)" font-family="sans-serif" stroke="none" stroke-miterlimit="1.45" xml:space="preserve">+ setText(const value : string&amp;) : void</text>
      <text stroke-linecap="butt" x="361" y="532.5954" clip-path="url(#clipPath4)" font-family="sans-serif" stroke="none" stroke-miterlimit="1.45" xml:space="preserve">+ const getID() const : string&amp;</text>
      <text stroke-linecap="butt" x="361" y="547.2966" clip-path="url(#clipPath4)" font-family="sans-serif" stroke="none" stroke-miterlimit="1.45" xml:space="preserve">+ setID(const value : string&amp;) : void</text>
      <text stroke-linecap="butt" x="361" y="561.9977" clip-path="url(#clipPath4)" font-family="sans-serif" stroke="none" stroke-miterlimit="1.45" xml:space="preserve"> </text>
      <text stroke-linecap="butt" x="361" y="576.6989" clip-path="url(#clipPath4)" font-family="sans-serif" stroke="none" stroke-miterlimit="1.45" xml:space="preserve">+ virtual Accept(*v : IVisitor) : void</text>
      <rect x="73" y="726" clip-path="url(#clipPath2)" fill="rgb(255,204,0)" width="202" height="71" stroke="none"/>
      <rect x="72" y="725" clip-path="url(#clipPath2)" fill="yellow" width="1" height="73" stroke="none"/>
      <rect x="73" y="725" clip-path="url(#clipPath2)" fill="yellow" width="202" height="1" stroke="none"/>
      <rect x="73" y="797" clip-path="url(#clipPath2)" fill="rgb(178,142,0)" width="203" height="1" stroke="none"/>
      <rect x="275" y="725" clip-path="url(#clipPath2)" fill="rgb(178,142,0)" width="1" height="72" stroke="none"/>
    </g>
    <g font-size="13px" stroke-linecap="butt" transform="matrix(1,0,0,1,-57,-405)" text-rendering="geometricPrecision" font-family="sans-serif" shape-rendering="geometricPrecision" font-weight="bold" stroke-miterlimit="1.45">
      <text x="149.6327" xml:space="preserve" y="743.8704" clip-path="url(#clipPath5)" stroke="none">Textbox</text>
    </g>
    <g text-rendering="geometricPrecision" shape-rendering="geometricPrecision" transform="matrix(1,0,0,1,-57,-405)">
      <line y2="751" fill="none" x1="73" clip-path="url(#clipPath5)" x2="275" y1="751"/>
      <line y2="761" fill="none" x1="73" clip-path="url(#clipPath5)" x2="275" y1="761"/>
      <text stroke-linecap="butt" x="77.3776" y="778.7913" clip-path="url(#clipPath5)" font-family="sans-serif" stroke="none" stroke-miterlimit="1.45" xml:space="preserve">+ Accept(*v : IVisitor) : void</text>
      <rect x="376" y="726" clip-path="url(#clipPath2)" fill="rgb(255,204,0)" width="202" height="71" stroke="none"/>
      <rect x="375" y="725" clip-path="url(#clipPath2)" fill="yellow" width="1" height="73" stroke="none"/>
      <rect x="376" y="725" clip-path="url(#clipPath2)" fill="yellow" width="202" height="1" stroke="none"/>
      <rect x="376" y="797" clip-path="url(#clipPath2)" fill="rgb(178,142,0)" width="203" height="1" stroke="none"/>
      <rect x="578" y="725" clip-path="url(#clipPath2)" fill="rgb(178,142,0)" width="1" height="72" stroke="none"/>
    </g>
    <g font-size="13px" stroke-linecap="butt" transform="matrix(1,0,0,1,-57,-405)" text-rendering="geometricPrecision" font-family="sans-serif" shape-rendering="geometricPrecision" font-weight="bold" stroke-miterlimit="1.45">
      <text x="460.6582" xml:space="preserve" y="743.8704" clip-path="url(#clipPath6)" stroke="none">Panel</text>
    </g>
    <g text-rendering="geometricPrecision" shape-rendering="geometricPrecision" transform="matrix(1,0,0,1,-57,-405)">
      <line y2="751" fill="none" x1="376" clip-path="url(#clipPath6)" x2="579" y1="751"/>
      <line y2="761" fill="none" x1="376" clip-path="url(#clipPath6)" x2="579" y1="761"/>
      <text stroke-linecap="butt" x="380.824" y="778.7913" clip-path="url(#clipPath6)" font-family="sans-serif" stroke="none" stroke-miterlimit="1.45" xml:space="preserve">+ Accept(*v : IVisitor) : void</text>
      <rect x="680" y="726" clip-path="url(#clipPath2)" fill="rgb(255,204,0)" width="202" height="71" stroke="none"/>
      <rect x="679" y="725" clip-path="url(#clipPath2)" fill="yellow" width="1" height="73" stroke="none"/>
      <rect x="680" y="725" clip-path="url(#clipPath2)" fill="yellow" width="202" height="1" stroke="none"/>
      <rect x="680" y="797" clip-path="url(#clipPath2)" fill="rgb(178,142,0)" width="203" height="1" stroke="none"/>
      <rect x="882" y="725" clip-path="url(#clipPath2)" fill="rgb(178,142,0)" width="1" height="72" stroke="none"/>
    </g>
    <g font-size="13px" stroke-linecap="butt" transform="matrix(1,0,0,1,-57,-405)" text-rendering="geometricPrecision" font-family="sans-serif" shape-rendering="geometricPrecision" font-weight="bold" stroke-miterlimit="1.45">
      <text x="737.035" xml:space="preserve" y="743.8704" clip-path="url(#clipPath7)" stroke="none">DropDownList</text>
    </g>
    <g text-rendering="geometricPrecision" shape-rendering="geometricPrecision" transform="matrix(1,0,0,1,-57,-405)">
      <line y2="751" fill="none" x1="680" clip-path="url(#clipPath7)" x2="882" y1="751"/>
      <line y2="761" fill="none" x1="680" clip-path="url(#clipPath7)" x2="882" y1="761"/>
      <text stroke-linecap="butt" x="684.2704" y="778.7913" clip-path="url(#clipPath7)" font-family="sans-serif" stroke="none" stroke-miterlimit="1.45" xml:space="preserve">+ Accept(*v : IVisitor) : void</text>
      <rect x="975" y="695" clip-path="url(#clipPath2)" fill="rgb(255,204,0)" width="254" height="93" stroke="none"/>
      <rect x="974" y="694" clip-path="url(#clipPath2)" fill="yellow" width="1" height="95" stroke="none"/>
      <rect x="975" y="694" clip-path="url(#clipPath2)" fill="yellow" width="254" height="1" stroke="none"/>
      <rect x="975" y="788" clip-path="url(#clipPath2)" fill="rgb(178,142,0)" width="255" height="1" stroke="none"/>
      <rect x="1229" y="694" clip-path="url(#clipPath2)" fill="rgb(178,142,0)" width="1" height="94" stroke="none"/>
    </g>
    <g font-size="13px" stroke-linecap="butt" transform="matrix(1,0,0,1,-57,-405)" text-rendering="geometricPrecision" font-family="sans-serif" shape-rendering="geometricPrecision" font-weight="bold" stroke-miterlimit="1.45">
      <text x="1056.3425" xml:space="preserve" y="712.8032" clip-path="url(#clipPath8)" stroke="none">ControlsVisitor</text>
    </g>
    <g text-rendering="geometricPrecision" shape-rendering="geometricPrecision" transform="matrix(1,0,0,1,-57,-405)">
      <line y2="720" fill="none" x1="975" clip-path="url(#clipPath8)" x2="1230" y1="720"/>
      <line y2="730" fill="none" x1="975" clip-path="url(#clipPath8)" x2="1230" y1="730"/>
      <text stroke-linecap="butt" x="979.9" y="747.7241" clip-path="url(#clipPath8)" font-family="sans-serif" stroke="none" stroke-miterlimit="1.45" xml:space="preserve">+ DropDownVisit(*c : Control) override : void</text>
      <text stroke-linecap="butt" x="979.9" y="762.4252" clip-path="url(#clipPath8)" font-family="sans-serif" stroke="none" stroke-miterlimit="1.45" xml:space="preserve">+ PanelVisit(*c : Control) override : void</text>
      <text stroke-linecap="butt" x="979.9" y="777.1264" clip-path="url(#clipPath8)" font-family="sans-serif" stroke="none" stroke-miterlimit="1.45" xml:space="preserve">+ TextBoxVisit(*c : Control) override : void</text>
      <rect x="1298" y="695" clip-path="url(#clipPath2)" fill="rgb(255,204,0)" width="254" height="93" stroke="none"/>
      <rect x="1297" y="694" clip-path="url(#clipPath2)" fill="yellow" width="1" height="95" stroke="none"/>
      <rect x="1298" y="694" clip-path="url(#clipPath2)" fill="yellow" width="254" height="1" stroke="none"/>
      <rect x="1298" y="788" clip-path="url(#clipPath2)" fill="rgb(178,142,0)" width="255" height="1" stroke="none"/>
      <rect x="1552" y="694" clip-path="url(#clipPath2)" fill="rgb(178,142,0)" width="1" height="94" stroke="none"/>
    </g>
    <g font-size="13px" stroke-linecap="butt" transform="matrix(1,0,0,1,-57,-405)" text-rendering="geometricPrecision" font-family="sans-serif" shape-rendering="geometricPrecision" font-weight="bold" stroke-miterlimit="1.45">
      <text x="1380.1716" xml:space="preserve" y="712.8032" clip-path="url(#clipPath9)" stroke="none">StatefullVisitor</text>
    </g>
    <g text-rendering="geometricPrecision" shape-rendering="geometricPrecision" transform="matrix(1,0,0,1,-57,-405)">
      <line y2="720" fill="none" x1="1298" clip-path="url(#clipPath9)" x2="1553" y1="720"/>
      <line y2="730" fill="none" x1="1298" clip-path="url(#clipPath9)" x2="1553" y1="730"/>
      <text stroke-linecap="butt" x="1302.65" y="747.7241" clip-path="url(#clipPath9)" font-family="sans-serif" stroke="none" stroke-miterlimit="1.45" xml:space="preserve">+ DropDownVisit(*c : Control) override : void</text>
      <text stroke-linecap="butt" x="1302.65" y="762.4252" clip-path="url(#clipPath9)" font-family="sans-serif" stroke="none" stroke-miterlimit="1.45" xml:space="preserve">+ PanelVisit(*c : Control) override : void</text>
      <text stroke-linecap="butt" x="1302.65" y="777.1264" clip-path="url(#clipPath9)" font-family="sans-serif" stroke="none" stroke-miterlimit="1.45" xml:space="preserve">+ TextBoxVisit(*c : Control) override : void</text>
      <path fill="none" stroke-miterlimit="1.45" d="M600.0258 506.7531 L1149.7794 506.7531" clip-path="url(#clipPath2)" stroke-linecap="butt"/>
      <path stroke-miterlimit="1.45" d="M1153.7794 506.7531 L1141.7794 500.7531 L1153.7794 506.7531 L1141.7794 512.7531 Z" clip-path="url(#clipPath2)" stroke-linecap="butt" stroke="none"/>
      <path fill="none" d="M1153.7794 506.7531 L1141.7794 500.7531 L1153.7794 506.7531 L1141.7794 512.7531 Z" clip-path="url(#clipPath2)"/>
      <path fill="none" stroke-miterlimit="1.45" d="M174.5536 725.8183 L174.5536 654.3525 L478 654.3525 L478 607.6966" clip-path="url(#clipPath2)" stroke-linecap="butt"/>
    </g>
    <g stroke-linecap="butt" transform="matrix(1,0,0,1,-57,-405)" fill="white" text-rendering="geometricPrecision" shape-rendering="geometricPrecision" stroke="white" stroke-miterlimit="1.45">
      <path d="M478 592.6966 L472 608.6966 L484 608.6966 Z" stroke="none" clip-path="url(#clipPath2)"/>
      <path fill="none" d="M478 592.6966 L472 608.6966 L484 608.6966 Z" clip-path="url(#clipPath2)" stroke="black"/>
      <path fill="none" d="M478 725.8016 L478 607.72" clip-path="url(#clipPath2)" stroke="black"/>
      <path d="M478 592.72 L472 608.72 L484 608.72 Z" clip-path="url(#clipPath2)" stroke="none"/>
      <path fill="none" d="M478 592.72 L472 608.72 L484 608.72 Z" clip-path="url(#clipPath2)" stroke="black"/>
      <path fill="none" d="M781.4464 725.8183 L781.4464 654.3525 L478 654.3525 L478 607.6966" clip-path="url(#clipPath2)" stroke="black"/>
      <path d="M478 592.6966 L472 608.6966 L484 608.6966 Z" clip-path="url(#clipPath2)" stroke="none"/>
      <path fill="none" d="M478 592.6966 L472 608.6966 L484 608.6966 Z" clip-path="url(#clipPath2)" stroke="black"/>
      <path fill="none" d="M1103.2898 694.765 L1103.2898 607.2253 L1276.75 607.2253 L1276.75 581.1631" clip-path="url(#clipPath2)" stroke="black"/>
      <path d="M1276.75 566.1631 L1270.75 582.1631 L1282.75 582.1631 Z" clip-path="url(#clipPath2)" stroke="none"/>
      <path fill="none" d="M1276.75 566.1631 L1270.75 582.1631 L1282.75 582.1631 Z" clip-path="url(#clipPath2)" stroke="black"/>
      <path fill="none" d="M1426.0398 694.765 L1426.0398 607.2253 L1276.75 607.2253 L1276.75 581.1631" clip-path="url(#clipPath2)" stroke="black"/>
      <path d="M1276.75 566.1631 L1270.75 582.1631 L1282.75 582.1631 Z" clip-path="url(#clipPath2)" stroke="none"/>
      <path fill="none" d="M1276.75 566.1631 L1270.75 582.1631 L1282.75 582.1631 Z" clip-path="url(#clipPath2)" stroke="black"/>
    </g>
  </g>
</svg>
